<svg width="110" height="77" viewBox="0 0 110 77" fill="none" xmlns="http://www.w3.org/2000/svg">
<g id="Group 1000003516">
<path id="Vector" d="M38.16 19.0787C38.1597 15.0582 36.8895 11.1406 34.5305 7.88495C32.1715 4.62929 28.8444 2.20199 25.024 0.949493C21.2036 -0.303005 17.0852 -0.316679 13.2566 0.9104C9.428 2.13748 6.08485 4.54259 3.70429 7.7825C1.32373 11.0224 0.0274269 14.9315 0.000430382 18.9519C-0.0265661 22.9722 1.21712 26.8984 3.55396 30.17C5.89079 33.4416 9.20136 35.8914 13.0132 37.1698C16.825 38.4482 20.9431 38.4898 24.78 37.2887C24.7405 34.9937 24.5367 32.7045 24.17 30.4387C22.9 30.3787 17.37 29.8487 14.42 26.0687C11.25 22.0687 11.65 15.2887 11.51 10.8887C11.5538 10.0335 11.3082 9.18857 10.8129 8.49008C10.3176 7.79159 9.60149 7.2803 8.78 7.0387C10.52 6.2687 17.27 6.7587 22.69 11.5787C24.9477 13.5106 26.6037 16.0496 27.4616 18.8945C28.3195 21.7394 28.3433 24.7707 27.53 27.6287C24.34 18.1087 19.61 13.4087 13.82 10.0587C19.76 15.1387 25.68 22.8587 27.01 36.3887C30.3356 34.8691 33.1545 32.4259 35.1312 29.35C37.1079 26.2741 38.1592 22.695 38.16 19.0387" fill="#07B45B"/>
<path id="Vector_2" d="M102.201 56.5088C102.201 54.8691 101.715 53.2664 100.804 51.9031C99.8931 50.5398 98.5983 49.4772 97.0835 48.8498C95.5687 48.2223 93.9019 48.0582 92.2938 48.378C90.6857 48.6979 89.2085 49.4875 88.0492 50.6468C86.8898 51.8062 86.1003 53.2833 85.7804 54.8914C85.4605 56.4995 85.6247 58.1664 86.2521 59.6812C86.8796 61.196 87.9421 62.4907 89.3054 63.4016C90.6687 64.3126 92.2715 64.7988 93.9111 64.7988C94.7492 64.801 95.5825 64.6728 96.3811 64.4188C96.3717 63.4136 96.2848 62.4106 96.1211 61.4188C94.5127 61.3685 92.9891 60.6857 91.8811 59.5188C90.5111 57.7588 90.6811 54.8288 90.6211 52.9188C90.6384 52.5473 90.5306 52.1808 90.3148 51.878C90.099 51.5752 89.7878 51.3536 89.4311 51.2487C90.1911 50.9087 93.1211 51.1287 95.4811 53.2487C96.4661 54.0908 97.188 55.1987 97.5604 56.44C97.9328 57.6813 97.9399 59.0035 97.5811 60.2487C96.6706 57.0086 94.5131 54.2613 91.5811 52.6088C93.269 54.0256 94.6523 55.7697 95.6474 57.7359C96.6425 59.7021 97.2289 61.8496 97.3711 64.0488C98.8147 63.3867 100.038 62.3244 100.896 60.9879C101.754 59.6514 102.21 58.0969 102.211 56.5088" fill="#07B45B"/>
<path id="Vector_3" d="M0 48.5386H4.61L10.65 57.4086V48.5386H15.32V64.5386H10.65L4.64 55.7186V64.5386H0V48.5386Z" fill="#07B45B"/>
<path id="Vector_4" d="M33.0977 48.5386H48.1377V52.4986H43.0877V64.5386H38.1477V52.4986H33.0977V48.5386Z" fill="#07B45B"/>
<path id="Vector_5" d="M60.7794 48.5386H65.7294V58.0686C65.7355 58.9812 65.5833 59.888 65.2794 60.7486C64.9911 61.5795 64.5194 62.3348 63.8994 62.9586C63.3372 63.5394 62.6545 63.99 61.8994 64.2786C60.7868 64.66 59.6151 64.8395 58.4394 64.8086C57.587 64.8058 56.7355 64.7523 55.8894 64.6486C55.0831 64.5741 54.297 64.3538 53.5694 63.9986C52.9226 63.6515 52.3488 63.1829 51.8794 62.6186C51.3984 62.0882 51.0369 61.4607 50.8194 60.7786C50.5344 59.9026 50.3794 58.9895 50.3594 58.0686V48.5386H55.3694V58.3086C55.3458 58.6819 55.3983 59.0561 55.5238 59.4085C55.6493 59.7609 55.8451 60.0842 56.0994 60.3586C56.3652 60.6104 56.6798 60.8051 57.0238 60.9307C57.3678 61.0562 57.7338 61.11 58.0994 61.0886C58.464 61.109 58.829 61.0557 59.1726 60.932C59.5162 60.8083 59.8314 60.6167 60.0994 60.3686C60.3517 60.0912 60.5454 59.7658 60.6691 59.4119C60.7928 59.058 60.844 58.6827 60.8194 58.3086L60.7794 48.5386Z" fill="#07B45B"/>
<path id="Vector_6" d="M78.2103 54.2987C78.0194 54.559 77.7372 54.7376 77.4203 54.7987C76.9915 54.913 76.5529 54.9867 76.1103 55.0187H74.0503V51.7787H76.2003C76.8384 51.7163 77.4798 51.8599 78.0303 52.1887C78.1946 52.3387 78.3237 52.5231 78.4084 52.7289C78.4931 52.9346 78.5313 53.1565 78.5203 53.3787C78.5233 53.7115 78.4141 54.0356 78.2103 54.2987ZM81.6903 58.9187C81.4617 58.6111 81.2001 58.3294 80.9103 58.0787C80.5158 57.8187 80.0843 57.6197 79.6303 57.4886C80.2371 57.3677 80.8209 57.1517 81.3603 56.8487C82.0101 56.4692 82.5509 55.9284 82.9303 55.2787C83.3243 54.5811 83.5214 53.7895 83.5003 52.9886C83.5272 52.0665 83.2688 51.1585 82.7603 50.3887C82.2782 49.6896 81.5731 49.1748 80.7603 48.9287C79.6192 48.6272 78.4398 48.4958 77.2603 48.5387H69.0703V64.5387H74.0703V58.0587H74.5003C74.9297 58.05 75.3504 58.1797 75.7003 58.4287C76.0786 58.7729 76.3816 59.1917 76.5903 59.6587L79.2303 64.5387H84.8203L82.3703 59.9187C82.1731 59.5639 81.942 59.229 81.6803 58.9187" fill="#07B45B"/>
<path id="Vector_7" d="M21.4795 60.3486C20.5114 59.9925 19.6579 59.3809 19.0096 58.5786L16.7695 64.5786H21.8195L22.6195 61.9586L23.0495 60.5486C22.5208 60.6037 21.9863 60.5492 21.4795 60.3886" fill="#07B45B"/>
<path id="Vector_8" d="M18.3703 55.2087C19.7003 55.0894 21.0409 55.2348 22.3144 55.6364C23.588 56.038 24.7694 56.688 25.7903 57.5487C25.4621 56.5614 24.8567 55.6894 24.0463 55.0368C23.236 54.3843 22.2549 53.9788 21.2203 53.8687C18.7003 53.5587 16.6603 54.7587 16.3203 55.3187C16.6037 55.2258 16.9101 55.2316 17.1897 55.3351C17.4694 55.4386 17.7057 55.6338 17.8603 55.8887C18.7703 57.1287 19.9903 59.1487 21.7003 59.6787C22.9673 59.9508 24.2905 59.7099 25.3803 59.0087C26.8872 60.6411 28.1168 62.5092 29.0203 64.5387L29.7603 63.6287C26.0603 57.1487 21.7603 55.5687 18.3703 55.2087Z" fill="#07B45B"/>
<path id="Vector_9" d="M28.199 48.5386H22.7791L21.0391 53.1586H21.2791C22.5887 53.3078 23.8174 53.8679 24.7891 54.7586L25.419 52.6786L27.1591 58.4386L28.1591 61.8986L28.959 64.5186H34.139L28.199 48.5386Z" fill="#07B45B"/>
<path id="Vector_10" d="M101.999 47.8487V43.9887H100.629V43.1987H104.309V43.9887H102.939V47.8487H101.999Z" fill="white"/>
<path id="Vector_11" d="M104.91 47.8487V43.1987H106.32L107.15 46.3787L107.99 43.1987H109.4V47.8487H108.52V44.1887L107.6 47.8487H106.69L105.78 44.1887V47.8487H104.91Z" fill="white"/>
<path id="Vector_12" d="M1.84953 71.6286V72.8786H2.55954C2.82258 72.8963 3.0865 72.8963 3.34953 72.8786C3.51483 72.8727 3.67186 72.8049 3.78954 72.6886C3.84328 72.6331 3.88517 72.5673 3.91267 72.4951C3.94018 72.4229 3.95273 72.3458 3.94954 72.2686C3.96142 72.187 3.9551 72.1037 3.93103 72.0247C3.90696 71.9458 3.86574 71.8731 3.81032 71.812C3.7549 71.7508 3.68664 71.7027 3.61044 71.671C3.53424 71.6393 3.45198 71.6248 3.36954 71.6286C3.25954 71.6286 2.94954 71.6286 2.43954 71.6286H1.84953ZM1.84953 73.7686V75.1986H2.84953C3.0959 75.2159 3.34318 75.2159 3.58954 75.1986C3.73933 75.1741 3.87662 75.1002 3.97954 74.9886C4.09047 74.8618 4.14784 74.6969 4.13954 74.5286C4.14392 74.3827 4.1019 74.2392 4.01953 74.1186C3.93558 74.0013 3.81651 73.9138 3.67953 73.8686C3.35065 73.802 3.01449 73.7785 2.67953 73.7986L1.84953 73.7686ZM0.769531 70.7686H2.90953C3.24363 70.7616 3.5778 70.7783 3.90953 70.8186C4.11715 70.8438 4.31592 70.9176 4.48967 71.034C4.66342 71.1504 4.80727 71.3062 4.90953 71.4886C5.02143 71.6797 5.08014 71.8972 5.07954 72.1186C5.07956 72.3629 5.01019 72.6022 4.87953 72.8086C4.74376 73.0161 4.55348 73.1822 4.32954 73.2886C4.6194 73.3554 4.87726 73.5203 5.05949 73.7554C5.24173 73.9905 5.33714 74.2813 5.32954 74.5786C5.33263 74.8289 5.27424 75.0762 5.15953 75.2986C5.05693 75.5191 4.89833 75.7087 4.69954 75.8486C4.48276 75.9969 4.23125 76.0865 3.96954 76.1086C3.78954 76.1086 3.34953 76.1086 2.65953 76.1086H0.769531V70.7686Z" fill="white"/>
<path id="Vector_13" d="M11.5806 73.9587L10.8406 71.9587L10.1206 73.9587H11.5806ZM13.5806 76.0887H12.3706L11.9006 74.8687H9.75063L9.30061 76.0887H8.14062L10.2306 70.7188H11.3806L13.5806 76.0887Z" fill="white"/>
<path id="Vector_14" d="M20.128 74.1087L21.178 74.4287C21.0676 74.9462 20.7857 75.4113 20.378 75.7487C19.8934 76.0746 19.3109 76.2227 18.7294 76.168C18.148 76.1134 17.6034 75.8592 17.188 75.4487C16.7024 74.8996 16.4543 74.1804 16.498 73.4487C16.4503 72.6922 16.6976 71.9467 17.188 71.3687C17.4223 71.1216 17.707 70.9277 18.0227 70.8C18.3384 70.6724 18.6778 70.6139 19.018 70.6287C19.607 70.6029 20.1823 70.8114 20.618 71.2087C20.8906 71.4845 21.081 71.8308 21.168 72.2087L20.098 72.4587C20.0471 72.1982 19.9053 71.9644 19.698 71.7987C19.4867 71.6352 19.225 71.5503 18.958 71.5587C18.7695 71.5488 18.5813 71.5825 18.4079 71.6571C18.2344 71.7316 18.0805 71.8451 17.958 71.9887C17.6779 72.3917 17.5471 72.8797 17.588 73.3687C17.5447 73.8799 17.675 74.3908 17.958 74.8187C18.08 74.9623 18.2341 75.0752 18.4078 75.1481C18.5816 75.2211 18.77 75.2521 18.958 75.2387C19.2294 75.2422 19.4926 75.1461 19.698 74.9687C19.9331 74.7313 20.0901 74.4278 20.148 74.0987" fill="white"/>
<path id="Vector_15" d="M24.6602 76.0987V70.7188H25.7402V73.0987L27.9402 70.7188H29.4002L27.3702 72.8087L29.5002 76.0987H28.1002L26.6202 73.5687L25.7402 74.4688V76.0987H24.6602Z" fill="white"/>
<path id="Vector_16" d="M38.4394 76.0987V71.6287H36.8594V70.7188H41.0994V71.6287H39.5194V76.0987H38.4394Z" fill="white"/>
<path id="Vector_17" d="M45.1198 73.4085C45.0861 73.9061 45.2395 74.3982 45.5498 74.7885C45.6811 74.9426 45.8456 75.0649 46.0309 75.1463C46.2162 75.2277 46.4176 75.2661 46.6198 75.2586C46.8195 75.2644 47.0179 75.2262 47.2011 75.1467C47.3843 75.0672 47.5478 74.9484 47.6798 74.7986C47.95 74.3853 48.0939 73.9023 48.0939 73.4085C48.0939 72.9148 47.95 72.4318 47.6798 72.0186C47.5462 71.8687 47.3808 71.7505 47.1957 71.6727C47.0106 71.5948 46.8104 71.5593 46.6098 71.5685C46.4055 71.5603 46.2019 71.5973 46.0135 71.6768C45.825 71.7563 45.6565 71.8764 45.5198 72.0285C45.2166 72.4217 45.0705 72.9136 45.1098 73.4085M43.9998 73.4085C43.9846 72.936 44.0698 72.4657 44.2498 72.0285C44.3704 71.7567 44.5399 71.5092 44.7498 71.2986C44.9449 71.0909 45.1795 70.9243 45.4398 70.8085C45.8088 70.6625 46.2031 70.5911 46.5998 70.5985C46.9494 70.5803 47.2988 70.6369 47.6247 70.7645C47.9506 70.8921 48.2456 71.0878 48.4898 71.3385C48.9807 71.8856 49.2359 72.6044 49.1998 73.3385C49.2354 74.0709 48.9843 74.7882 48.4998 75.3385C47.9831 75.8136 47.3067 76.0772 46.6048 76.0772C45.9029 76.0772 45.2266 75.8136 44.7098 75.3385C44.4658 75.0682 44.2775 74.7524 44.1557 74.4092C44.0339 74.0661 43.9809 73.7022 43.9998 73.3385" fill="white"/>
<path id="Vector_18" d="M57.2383 76.0987V70.7188H58.2883L60.5083 74.3387V70.7188H61.5183V76.0987H60.4283L58.2383 72.5587V76.0987H57.2383Z" fill="white"/>
<path id="Vector_19" d="M68.058 73.9587L67.318 71.9587L66.598 73.9587H68.058ZM70.058 76.0887H68.898L68.428 74.8687H66.268L65.838 76.0887H64.668L66.748 70.7188H67.908L70.058 76.0887Z" fill="white"/>
<path id="Vector_20" d="M73.8083 76.0987V71.6287H72.2383V70.7188H76.4683V71.6287H74.8983V76.0987H73.8083Z" fill="white"/>
<path id="Vector_21" d="M79.7396 70.7185H80.8196V73.6285C80.7957 73.9247 80.7957 74.2223 80.8196 74.5185C80.8682 74.7295 80.984 74.9189 81.1496 75.0585C81.3628 75.1979 81.6153 75.2645 81.8696 75.2485C82.113 75.2645 82.355 75.2014 82.5596 75.0685C82.7021 74.947 82.8006 74.7817 82.8396 74.5985C82.8786 74.2968 82.8953 73.9926 82.8895 73.6885V70.6885H83.9696V73.5185C83.9838 73.977 83.9536 74.4358 83.8796 74.8885C83.8308 75.1399 83.7176 75.3743 83.5511 75.5689C83.3846 75.7634 83.1704 75.9115 82.9296 75.9985C82.6098 76.1171 82.2706 76.1748 81.9296 76.1685C81.5308 76.1836 81.1331 76.119 80.7596 75.9785C80.5174 75.8799 80.3041 75.7217 80.1395 75.5185C79.9905 75.3494 79.8842 75.1471 79.8295 74.9285C79.7494 74.4764 79.7159 74.0174 79.7295 73.5585L79.7396 70.7185Z" fill="white"/>
<path id="Vector_22" d="M88.7792 72.9887H89.5792C89.9142 73.009 90.2503 72.9855 90.5792 72.9188C90.7011 72.8758 90.8061 72.7953 90.8792 72.6888C90.9555 72.5696 90.9938 72.4301 90.9892 72.2888C90.9955 72.1333 90.9459 71.9807 90.8492 71.8588C90.7258 71.7219 90.5533 71.6392 90.3692 71.6288C90.2892 71.6288 90.0292 71.6288 89.5892 71.6288H88.7392L88.7792 72.9887ZM87.6992 76.0887V70.7188H89.9792C90.4006 70.7016 90.8221 70.7489 91.2292 70.8588C91.4863 70.9611 91.7037 71.1434 91.8492 71.3788C92.0021 71.6321 92.0817 71.9229 92.0792 72.2188C92.0929 72.5843 91.9678 72.9415 91.7292 73.2188C91.4443 73.503 91.0697 73.6797 90.6692 73.7188C90.8855 73.8366 91.0814 73.9885 91.2492 74.1688C91.4774 74.4406 91.6815 74.7316 91.8592 75.0388L92.5092 76.0388H91.2192L90.4392 74.8687C90.2685 74.592 90.078 74.328 89.8692 74.0788C89.7823 73.9803 89.6723 73.9047 89.5492 73.8588C89.3699 73.8113 89.1845 73.7911 88.9992 73.7988H88.7792V76.0388L87.6992 76.0887Z" fill="white"/>
<path id="Vector_23" d="M95.6602 76.0987V70.7188H99.6301V71.6287H96.7402V72.8187H99.4302V73.7287H96.7402V75.1888H99.7402V76.0987H95.6602Z" fill="white"/>
</g>
</svg>
