<svg width="147" height="40" viewBox="0 0 147 40" fill="none" xmlns="http://www.w3.org/2000/svg">
<path d="M40.0001 19.9986C39.9998 15.7843 38.6683 11.6778 36.1956 8.26514C33.7229 4.8525 30.2353 2.30817 26.2307 0.995275C22.2261 -0.317615 17.9091 -0.331949 13.8959 0.954297C9.88263 2.24054 6.37826 4.76163 3.88291 8.15776C1.38756 11.5539 0.0287495 15.6515 0.000451135 19.8657C-0.0278472 24.0799 1.27582 28.1954 3.72533 31.6247C6.17485 35.054 9.64506 37.622 13.6407 38.962C17.6363 40.302 21.9531 40.3457 25.9749 39.0867C25.9335 36.681 25.7199 34.2815 25.3355 31.9064C24.0043 31.8435 18.2076 31.2879 15.1154 27.3257C11.7925 23.1328 12.2118 16.0259 12.065 11.4137C12.1109 10.5173 11.8535 9.63163 11.3343 8.89945C10.8152 8.16728 10.0645 7.63134 9.20338 7.37809C11.0273 6.57096 18.1028 7.08459 23.7841 12.137C26.1507 14.1621 27.8866 16.8235 28.7858 19.8056C29.6851 22.7876 29.71 25.9651 28.8575 28.9609C25.5137 18.9819 20.5556 14.0552 14.4864 10.5437C20.7129 15.8686 26.9183 23.9609 28.3125 38.1433C31.7984 36.5504 34.7532 33.9894 36.8253 30.7652C38.8973 27.541 39.9993 23.7893 40.0001 19.9567" fill="white"/>
<path d="M136.231 19.9944C136.231 18.6111 135.821 17.2588 135.052 16.1085C134.284 14.9583 133.191 14.0618 131.913 13.5324C130.635 13.003 129.229 12.8645 127.872 13.1344C126.515 13.4043 125.269 14.0704 124.291 15.0486C123.313 16.0268 122.646 17.2731 122.377 18.6299C122.107 19.9867 122.245 21.393 122.775 22.6711C123.304 23.9492 124.2 25.0415 125.351 25.8101C126.501 26.5787 127.853 26.9889 129.237 26.9889C129.944 26.9907 130.647 26.8826 131.321 26.6683C131.313 25.8202 131.239 24.9739 131.101 24.1371C129.744 24.0947 128.459 23.5186 127.524 22.534C126.368 21.0491 126.511 18.577 126.461 16.9655C126.475 16.6521 126.384 16.3429 126.202 16.0874C126.02 15.8319 125.758 15.6449 125.457 15.5565C126.098 15.2696 128.57 15.4552 130.561 17.2439C131.392 17.9544 132.001 18.8891 132.316 19.9364C132.63 20.9837 132.636 22.0993 132.333 23.1499C131.565 20.4162 129.744 18.0983 127.271 16.7039C128.695 17.8993 129.862 19.3709 130.702 21.0298C131.541 22.6888 132.036 24.5007 132.156 26.3561C133.374 25.7975 134.406 24.9012 135.13 23.7736C135.854 22.646 136.239 21.3344 136.239 19.9944" fill="#00D15F"/>
<path d="M50 13.2695H53.8895L58.9856 20.7533V13.2695H62.9257V26.7691H58.9856L53.9148 19.3274V26.7691H50V13.2695Z" fill="#00D15F"/>
<path d="M77.9258 13.2695H90.6153V16.6107H86.3545V26.7691H82.1865V16.6107H77.9258V13.2695Z" fill="#00D15F"/>
<path d="M101.284 13.2695H105.46V21.3102C105.465 22.0802 105.337 22.8453 105.08 23.5713C104.837 24.2724 104.439 24.9097 103.916 25.436C103.442 25.9261 102.866 26.3062 102.229 26.5497C101.29 26.8715 100.301 27.0229 99.3094 26.9969C98.5902 26.9945 97.8718 26.9494 97.1579 26.8619C96.4776 26.799 95.8144 26.6132 95.2005 26.3134C94.6548 26.0206 94.1707 25.6253 93.7747 25.1491C93.3688 24.7016 93.0638 24.1722 92.8803 23.5967C92.6398 22.8576 92.5091 22.0872 92.4922 21.3102V13.2695H96.7192V21.5127C96.6993 21.8277 96.7436 22.1434 96.8495 22.4407C96.9554 22.7381 97.1206 23.0108 97.3351 23.2423C97.5594 23.4548 97.8248 23.6191 98.115 23.725C98.4053 23.8309 98.7141 23.8763 99.0226 23.8582C99.3302 23.8754 99.6382 23.8305 99.9281 23.7261C100.218 23.6218 100.484 23.4601 100.71 23.2507C100.923 23.0167 101.086 22.7422 101.191 22.4436C101.295 22.1449 101.338 21.8283 101.317 21.5127L101.284 13.2695Z" fill="#00D15F"/>
<path d="M115.985 18.1302C115.824 18.3498 115.586 18.5005 115.318 18.552C114.957 18.6485 114.587 18.7107 114.213 18.7377H112.475V16.004H114.289C114.828 15.9513 115.369 16.0726 115.833 16.3499C115.972 16.4765 116.081 16.6321 116.152 16.8057C116.224 16.9793 116.256 17.1665 116.247 17.3539C116.249 17.6347 116.157 17.9082 115.985 18.1302ZM118.921 22.0282C118.728 21.7687 118.508 21.531 118.263 21.3194C117.93 21.1001 117.566 20.9322 117.183 20.8216C117.695 20.7195 118.188 20.5373 118.643 20.2817C119.191 19.9615 119.647 19.5052 119.967 18.957C120.3 18.3685 120.466 17.7006 120.448 17.0249C120.471 16.2468 120.253 15.4807 119.824 14.8312C119.417 14.2414 118.822 13.8071 118.136 13.5994C117.174 13.3451 116.179 13.2342 115.183 13.2703H108.273V26.7699H112.492V21.3025H112.855C113.217 21.2952 113.572 21.4047 113.867 21.6147C114.186 21.9052 114.442 22.2585 114.618 22.6525L116.846 26.7699H121.562L119.495 22.8719C119.328 22.5725 119.133 22.29 118.913 22.0282" fill="#00D15F"/>
<path d="M68.1184 23.2346C67.3016 22.9342 66.5815 22.4181 66.0345 21.7412L64.1445 26.8035H68.4053L69.0803 24.593L69.4431 23.4033C68.9969 23.4498 68.546 23.4038 68.1184 23.2683" fill="#00D15F"/>
<path d="M65.4952 18.8977C66.6174 18.797 67.7484 18.9196 68.823 19.2585C69.8975 19.5974 70.8942 20.1458 71.7556 20.872C71.4787 20.039 70.9679 19.3032 70.2842 18.7527C69.6005 18.2021 68.7727 17.86 67.8998 17.7671C65.7737 17.5055 64.0525 18.518 63.7656 18.9905C64.0047 18.9121 64.2632 18.917 64.4992 19.0043C64.7351 19.0917 64.9345 19.2563 65.0649 19.4714C65.8327 20.5176 66.862 22.2219 68.3048 22.6691C69.3738 22.8987 70.4902 22.6954 71.4097 22.1038C72.6811 23.4811 73.7185 25.0572 74.4808 26.7696L75.1052 26.0018C71.9834 20.5345 68.3554 19.2014 65.4952 18.8977Z" fill="#00D15F"/>
<path d="M73.791 13.2695H69.2181L67.75 17.1675H67.9525C69.0574 17.2934 70.0941 17.766 70.9139 18.5175L71.4455 16.7625L72.9135 21.6224L73.7573 24.5416L74.4322 26.7522H78.8027L73.791 13.2695Z" fill="#00D15F"/>
</svg>
